<svg xmlns="http://www.w3.org/2000/svg" width="37" height="34"><path d="M18.11.5C10.705.5164 4.0526 5.0298 1.3006 11.9044S.249 26.636 5.597 31.7577c1.2766 1.2186 3.2522 1.3215 4.6483.2418 4.5842-3.4 10.8532-3.4 15.4373 0 1.4103 1.1163 3.43 1.0128 4.7187-.2418 5.3202-5.0936 7.0346-12.8973 4.3392-19.7518S25.4745.6055 18.11.5m-.1013 27.1538a8.793 8.793 0 0 1-6.4813-2.5501c-1.7174-1.706-2.6555-4.0444-2.5932-6.4642-.1104-3.2944 1.584-6.387 4.4202-8.0668s6.3623-1.68 9.1984 0a9.025 9.025 0 0 1 4.4202 8.0668c.0644 2.41-.8646 4.7404-2.5692 6.445s-4.0352 2.6337-6.4452 2.5692" fill="#81b5a1"/></svg>